#N struct 1129-rectangle float x float c;
#N struct 1129-pixel float x0 float y0;
#N canvas 237 79 914 653 12;
#X obj 151 69 tgl 19 0 empty empty empty 0 -10 0 12 #fcfcfc #000000 #000000 0 1;
#X obj 116 518 dac~;
#N canvas 444 203 813 636 (subpatch) 0;
#X obj 105 307 line~;
#X obj 105 134 vsl 20 100 1 2000 0 0 empty empty delay\ time 0 -9 0 12 #fcfcfc #000000 #000000 0 1;
#X obj 105 18 loadbang;
#X obj 228 339 line~;
#X floatatom 187 174 5 0 50 2 filter\ amount - - 0;
#X obj 105 486 vcf~ 0;
#X msg 228 315 \$1 100;
#X floatatom 187 134 5 100 2000 2 filter\ frequency - - 0;
#X obj 105 576 clip~ -0.99 0.99;
#X obj 105 544 *~;
#X obj 457 339 line~;
#X msg 457 315 \$1 100;
#X floatatom 187 217 5 0 100 2 delay\ feedback - - 0;
#X msg 105 277 \$1 100;
#X obj 457 290 * 0.015;
#X text 104 100 #2;
#X msg 105 53 200;
#X msg 186 54 500;
#X obj 105 342 delread4~ d2;
#X obj 105 607 throw~ d2;
#X text 249 54 objects in the red box will be visible in the parent patch;
#X text 224 135 (100-2000);
#X text 224 175 (0-50);
#X text 224 218 (0-100);
#X connect 0 0 18 0;
#X connect 1 0 13 0;
#X connect 2 0 16 0;
#X connect 2 0 17 0;
#X connect 3 0 5 1;
#X connect 4 0 5 2;
#X connect 5 0 9 0;
#X connect 6 0 3 0;
#X connect 7 0 6 0;
#X connect 8 0 19 0;
#X connect 9 0 8 0;
#X connect 10 0 9 1;
#X connect 11 0 10 0;
#X connect 12 0 14 0;
#X connect 13 0 0 0;
#X connect 14 0 11 0;
#X connect 16 0 1 0;
#X connect 17 0 7 0;
#X connect 18 0 5 0;
#X coords 0 -1 1 1 200 140 2 100 100;
#X restore 484 166 pd;
#N canvas 444 203 813 636 (subpatch) 0;
#X obj 105 307 line~;
#X obj 105 134 vsl 20 100 1 2000 0 0 empty empty delay\ time 0 -9 0 12 #fcfcfc #000000 #000000 0 1;
#X obj 105 18 loadbang;
#X obj 228 339 line~;
#X floatatom 187 174 5 0 50 2 filter\ amount - - 0;
#X obj 105 486 vcf~ 0;
#X msg 228 315 \$1 100;
#X floatatom 187 134 5 100 2000 2 filter\ frequency - - 0;
#X obj 105 576 clip~ -0.99 0.99;
#X obj 105 544 *~;
#X obj 457 339 line~;
#X msg 457 315 \$1 100;
#X floatatom 187 217 5 0 100 2 delay\ feedback - - 0;
#X msg 105 277 \$1 100;
#X obj 457 290 * 0.015;
#X msg 186 54 500;
#X text 104 100 #1;
#X msg 105 53 100;
#X obj 105 342 delread4~ d1;
#X obj 105 607 throw~ d1;
#X text 249 54 objects in the red box will be visible in the parent patch;
#X text 224 135 (100-2000);
#X text 224 175 (0-50);
#X text 224 218 (0-100);
#X connect 0 0 18 0;
#X connect 1 0 13 0;
#X connect 2 0 17 0;
#X connect 2 0 15 0;
#X connect 3 0 5 1;
#X connect 4 0 5 2;
#X connect 5 0 9 0;
#X connect 6 0 3 0;
#X connect 7 0 6 0;
#X connect 8 0 19 0;
#X connect 9 0 8 0;
#X connect 10 0 9 1;
#X connect 11 0 10 0;
#X connect 12 0 14 0;
#X connect 13 0 0 0;
#X connect 14 0 11 0;
#X connect 15 0 7 0;
#X connect 17 0 1 0;
#X connect 18 0 5 0;
#X coords 0 -1 1 1 200 140 2 100 100;
#X restore 280 166 pd;
#N canvas 444 203 813 636 (subpatch) 0;
#X obj 105 307 line~;
#X obj 105 134 vsl 20 100 1 2000 0 0 empty empty delay\ time 0 -9 0 12 #fcfcfc #000000 #000000 0 1;
#X obj 105 18 loadbang;
#X obj 228 339 line~;
#X floatatom 187 174 5 0 50 2 filter\ amount - - 0;
#X obj 105 486 vcf~ 0;
#X msg 228 315 \$1 100;
#X floatatom 187 134 5 100 2000 2 filter\ frequency - - 0;
#X obj 105 576 clip~ -0.99 0.99;
#X obj 105 544 *~;
#X obj 457 339 line~;
#X msg 457 315 \$1 100;
#X floatatom 187 217 5 0 100 2 delay\ feedback - - 0;
#X msg 105 277 \$1 100;
#X obj 457 290 * 0.015;
#X msg 186 54 500;
#X text 104 100 #3;
#X msg 105 53 300;
#X obj 105 342 delread4~ d3;
#X obj 105 607 throw~ d3;
#X text 249 54 objects in the red box will be visible in the parent patch;
#X text 224 135 (100-2000);
#X text 224 175 (0-50);
#X text 224 218 (0-100);
#X connect 0 0 18 0;
#X connect 1 0 13 0;
#X connect 2 0 17 0;
#X connect 2 0 15 0;
#X connect 3 0 5 1;
#X connect 4 0 5 2;
#X connect 5 0 9 0;
#X connect 6 0 3 0;
#X connect 7 0 6 0;
#X connect 8 0 19 0;
#X connect 9 0 8 0;
#X connect 10 0 9 1;
#X connect 11 0 10 0;
#X connect 12 0 14 0;
#X connect 13 0 0 0;
#X connect 14 0 11 0;
#X connect 15 0 7 0;
#X connect 17 0 1 0;
#X connect 18 0 5 0;
#X coords 0 -1 1 1 200 140 2 100 100;
#X restore 688 166 pd;
#N canvas 525 70 915 624 d-matrix 0;
#X obj 178 558 delwrite~ d1 2000;
#X obj 356 326 catch~ d1;
#X obj 538 326 catch~ d2;
#X obj 736 330 catch~ d3;
#X obj 354 558 delwrite~ d2 2000;
#X obj 534 557 delwrite~ d3 2000;
#X obj 728 557 outlet~;
#X obj 189 328 inlet~;
#X obj 160 198 tgl 19 0 empty empty empty 0 -10 0 12 #fcfcfc #000000 #000000 0 1;
#X obj 181 198 tgl 19 0 empty empty empty 0 -10 0 12 #fcfcfc #000000 #000000 0 1;
#X obj 202 198 tgl 19 0 empty empty empty 0 -10 0 12 #fcfcfc #000000 #000000 0 1;
#X obj 223 198 tgl 19 0 empty empty empty 0 -10 0 12 #fcfcfc #000000 #000000 0 1;
#X obj 160 177 tgl 19 0 empty empty empty 0 -10 0 12 #fcfcfc #000000 #000000 0 1;
#X obj 181 177 tgl 19 0 empty empty empty 0 -10 0 12 #fcfcfc #000000 #000000 0 1;
#X obj 202 177 tgl 19 0 empty empty empty 0 -10 0 12 #fcfcfc #000000 #000000 0 1;
#X obj 223 177 tgl 19 0 empty empty empty 0 -10 0 12 #fcfcfc #000000 #000000 0 1;
#N canvas 503 319 450 300 d-routing 0;
#X obj 79 159 *~;
#X obj 97 133 line~;
#X msg 97 109 \$1 20;
#X obj 79 227 outlet~;
#X obj 79 39 inlet~;
#X obj 97 81 inlet;
#X obj 151 158 *~;
#X obj 169 132 line~;
#X msg 169 108 \$1 20;
#X obj 169 80 inlet;
#X obj 222 158 *~;
#X obj 240 132 line~;
#X msg 240 108 \$1 20;
#X obj 240 80 inlet;
#X obj 290 158 *~;
#X obj 308 132 line~;
#X msg 308 108 \$1 20;
#X obj 308 80 inlet;
#X obj 152 227 outlet~;
#X obj 219 227 outlet~;
#X obj 287 228 outlet~;
#X connect 0 0 3 0;
#X connect 1 0 0 1;
#X connect 2 0 1 0;
#X connect 4 0 0 0;
#X connect 4 0 6 0;
#X connect 4 0 10 0;
#X connect 4 0 14 0;
#X connect 5 0 2 0;
#X connect 6 0 18 0;
#X connect 7 0 6 1;
#X connect 8 0 7 0;
#X connect 9 0 8 0;
#X connect 10 0 19 0;
#X connect 11 0 10 1;
#X connect 12 0 11 0;
#X connect 13 0 12 0;
#X connect 14 0 20 0;
#X connect 15 0 14 1;
#X connect 16 0 15 0;
#X connect 17 0 16 0;
#X restore 734 468 pd d-routing;
#N canvas 503 319 450 300 d-routing 0;
#X obj 79 159 *~;
#X obj 97 133 line~;
#X msg 97 109 \$1 20;
#X obj 79 227 outlet~;
#X obj 79 39 inlet~;
#X obj 97 81 inlet;
#X obj 151 158 *~;
#X obj 169 132 line~;
#X msg 169 108 \$1 20;
#X obj 169 80 inlet;
#X obj 222 158 *~;
#X obj 240 132 line~;
#X msg 240 108 \$1 20;
#X obj 240 80 inlet;
#X obj 290 158 *~;
#X obj 308 132 line~;
#X msg 308 108 \$1 20;
#X obj 308 80 inlet;
#X obj 152 227 outlet~;
#X obj 219 227 outlet~;
#X obj 287 228 outlet~;
#X connect 0 0 3 0;
#X connect 1 0 0 1;
#X connect 2 0 1 0;
#X connect 4 0 0 0;
#X connect 4 0 6 0;
#X connect 4 0 10 0;
#X connect 4 0 14 0;
#X connect 5 0 2 0;
#X connect 6 0 18 0;
#X connect 7 0 6 1;
#X connect 8 0 7 0;
#X connect 9 0 8 0;
#X connect 10 0 19 0;
#X connect 11 0 10 1;
#X connect 12 0 11 0;
#X connect 13 0 12 0;
#X connect 14 0 20 0;
#X connect 15 0 14 1;
#X connect 16 0 15 0;
#X connect 17 0 16 0;
#X restore 539 448 pd d-routing;
#X obj 160 156 tgl 19 0 empty empty empty 0 -10 0 12 #fcfcfc #000000 #000000 0 1;
#X obj 181 156 tgl 19 0 empty empty empty 0 -10 0 12 #fcfcfc #000000 #000000 0 1;
#X obj 202 156 tgl 19 0 empty empty empty 0 -10 0 12 #fcfcfc #000000 #000000 0 1;
#X obj 223 156 tgl 19 0 empty empty empty 0 -10 0 12 #fcfcfc #000000 #000000 0 1;
#N canvas 503 319 450 300 d-routing 0;
#X obj 79 159 *~;
#X obj 97 133 line~;
#X msg 97 109 \$1 20;
#X obj 79 227 outlet~;
#X obj 79 39 inlet~;
#X obj 97 81 inlet;
#X obj 151 158 *~;
#X obj 169 132 line~;
#X msg 169 108 \$1 20;
#X obj 169 80 inlet;
#X obj 222 158 *~;
#X obj 240 132 line~;
#X msg 240 108 \$1 20;
#X obj 240 80 inlet;
#X obj 290 158 *~;
#X obj 308 132 line~;
#X msg 308 108 \$1 20;
#X obj 308 80 inlet;
#X obj 152 227 outlet~;
#X obj 219 227 outlet~;
#X obj 287 228 outlet~;
#X connect 0 0 3 0;
#X connect 1 0 0 1;
#X connect 2 0 1 0;
#X connect 4 0 0 0;
#X connect 4 0 6 0;
#X connect 4 0 10 0;
#X connect 4 0 14 0;
#X connect 5 0 2 0;
#X connect 6 0 18 0;
#X connect 7 0 6 1;
#X connect 8 0 7 0;
#X connect 9 0 8 0;
#X connect 10 0 19 0;
#X connect 11 0 10 1;
#X connect 12 0 11 0;
#X connect 13 0 12 0;
#X connect 14 0 20 0;
#X connect 15 0 14 1;
#X connect 16 0 15 0;
#X connect 17 0 16 0;
#X restore 353 444 pd d-routing;
#X obj 160 135 tgl 19 0 empty empty empty 0 -10 0 12 #fcfcfc #000000 #000000 0 1;
#X obj 181 135 tgl 19 0 empty empty empty 0 -10 0 12 #fcfcfc #000000 #000000 0 1;
#X obj 202 135 tgl 19 0 empty empty empty 0 -10 0 12 #fcfcfc #000000 #000000 0 1;
#N canvas 503 319 450 300 d-routing 0;
#X obj 79 159 *~;
#X obj 97 133 line~;
#X msg 97 109 \$1 20;
#X obj 79 227 outlet~;
#X obj 79 39 inlet~;
#X obj 97 81 inlet;
#X obj 151 158 *~;
#X obj 169 132 line~;
#X msg 169 108 \$1 20;
#X obj 169 80 inlet;
#X obj 222 158 *~;
#X obj 240 132 line~;
#X msg 240 108 \$1 20;
#X obj 240 80 inlet;
#X obj 290 158 *~;
#X msg 308 108 \$1 20;
#X obj 308 80 inlet;
#X obj 152 227 outlet~;
#X obj 219 227 outlet~;
#X obj 287 228 outlet~;
#X obj 308 132 line~;
#X connect 0 0 3 0;
#X connect 1 0 0 1;
#X connect 2 0 1 0;
#X connect 4 0 0 0;
#X connect 4 0 6 0;
#X connect 4 0 10 0;
#X connect 4 0 14 0;
#X connect 5 0 2 0;
#X connect 6 0 17 0;
#X connect 7 0 6 1;
#X connect 8 0 7 0;
#X connect 9 0 8 0;
#X connect 10 0 18 0;
#X connect 11 0 10 1;
#X connect 12 0 11 0;
#X connect 13 0 12 0;
#X connect 14 0 19 0;
#X connect 15 0 20 0;
#X connect 16 0 15 0;
#X connect 20 0 14 1;
#X restore 188 442 pd d-routing;
#X text 161 118 d1;
#X text 182 118 d2;
#X text 203 118 d3;
#X text 154 102 to:;
#X text 221 118 out;
#X text 140 134 in;
#X text 140 155 d1;
#X text 140 176 d2;
#X text 140 197 d3;
#X text 102 134 from:;
#X connect 1 0 22 0;
#X connect 2 0 17 0;
#X connect 3 0 16 0;
#X connect 7 0 26 0;
#X connect 8 0 16 1;
#X connect 9 0 16 2;
#X connect 10 0 16 3;
#X connect 11 0 16 4;
#X connect 12 0 17 1;
#X connect 13 0 17 2;
#X connect 14 0 17 3;
#X connect 15 0 17 4;
#X connect 16 0 0 0;
#X connect 16 1 4 0;
#X connect 16 2 5 0;
#X connect 16 3 6 0;
#X connect 17 0 0 0;
#X connect 17 1 4 0;
#X connect 17 2 5 0;
#X connect 17 3 6 0;
#X connect 18 0 22 1;
#X connect 19 0 22 2;
#X connect 20 0 22 3;
#X connect 21 0 22 4;
#X connect 22 0 0 0;
#X connect 22 1 4 0;
#X connect 22 2 5 0;
#X connect 22 3 6 0;
#X connect 23 0 26 1;
#X connect 24 0 26 2;
#X connect 25 0 26 3;
#X connect 26 0 0 0;
#X connect 26 1 4 0;
#X connect 26 2 5 0;
#X connect 26 3 6 0;
#X coords 0 -1 1 1 160 120 2 100 100;
#X restore 116 186 pd d-matrix;
#X text 280 86 "filter amount" of 0 turns filter off;
#X text 279 100 higher "filter amount" will increase resonance but also decrease amplitude;
#X text 279 48 "delay feedback" will not do much unless a delay is routed back to its own input;
#X text 278 138 right-click a delay and choose "open" to make subpatch edits;
#N canvas 415 168 224 300 test-blip 0;
#X obj 36 190 noise~;
#X obj 90 50 metro 1000;
#X obj 90 191 line~;
#X obj 136 101 delay 50;
#X msg 90 164 \$1 20;
#X obj 36 225 *~;
#X obj 90 21 inlet;
#X obj 36 256 outlet~;
#X msg 90 101 1;
#X msg 136 128 0;
#X connect 0 0 5 0;
#X connect 1 0 8 0;
#X connect 1 0 3 0;
#X connect 2 0 5 1;
#X connect 3 0 9 0;
#X connect 4 0 2 0;
#X connect 5 0 7 0;
#X connect 6 0 1 0;
#X connect 8 0 4 0;
#X connect 9 0 4 0;
#X restore 151 95 pd test-blip;
#N canvas 534 86 834 747 mixer 0;
#X obj 131 110 vu 15 160 empty empty -1 -8 0 12 #404040 #000000 1 0;
#N canvas 329 161 625 417 vu 0;
#X obj 59 129 env~ 1024;
#X obj 161 111 abs~;
#X obj 161 213 snapshot~;
#X obj 161 256 rmstodb;
#X obj 161 21 inlet~;
#X obj 161 288 - 100;
#X obj 59 287 - 100;
#X obj 59 361 outlet;
#X obj 161 361 outlet;
#X text 344 307 Check the help file of env~ and slop~ for more details., f 31;
#X floatatom 239 117 5 0 0 0 - - - 0;
#X obj 161 146 slop~ 0 0 0 0 1e+09;
#X text 359 89 convert to hz;
#X text 282 118 hz;
#X text 284 57 peak decay time in ms;
#X obj 59 171 t f b;
#X text 345 132 The env~ object is dedicated to RMS analysis. Its output is in dB (0-100 range \, pd style) but needs to be converted to dBFS (and we do that by simply subtracting 100)., f 31;
#X text 345 225 The slop~ object is used here for peak detection. We need to convert the output to dB with rmstodb and also subtract by 100 to convert it to dBFS., f 31;
#X obj 239 89 expr 1000 / $f1;
#X obj 240 19 loadbang;
#X msg 240 55 500;
#X connect 0 0 15 0;
#X connect 1 0 11 0;
#X connect 2 0 3 0;
#X connect 3 0 5 0;
#X connect 4 0 0 0;
#X connect 4 0 1 0;
#X connect 5 0 8 0;
#X connect 6 0 7 0;
#X connect 10 0 11 3;
#X connect 11 0 2 0;
#X connect 15 0 6 0;
#X connect 15 1 2 0;
#X connect 18 0 10 0;
#X connect 19 0 20 0;
#X connect 20 0 18 0;
#X restore 132 69 pd vu;
#X obj 45 38 inlet~;
#X obj 45 375 *~;
#X obj 108 110 vsl 20 159 0 100 0 0 empty empty empty 0 -9 0 12 #fcfcfc #000000 #000000 0 1;
#X msg 137 405 \$1 50;
#X obj 137 357 * 0.01;
#X floatatom 137 381 5 0 0 0 - - - 0;
#X obj 137 428 line~;
#X obj 45 515 outlet~;
#X obj 46 154 *~ 1;
#X connect 1 0 0 0;
#X connect 1 1 0 1;
#X connect 2 0 10 0;
#X connect 3 0 9 0;
#X connect 3 0 1 0;
#X connect 4 0 6 0;
#X connect 5 0 8 0;
#X connect 6 0 7 0;
#X connect 7 0 5 0;
#X connect 8 0 3 1;
#X connect 10 0 3 0;
#X coords 0 -1 1 1 85 180 2 100 100;
#X restore 116 312 pd mixer;
#X obj 116 94 adc~;
#N canvas 534 86 834 747 meter 0;
#X obj 108 111 vu 15 160 empty empty -1 -8 0 12 #404040 #000000 1 0;
#N canvas 329 161 625 417 vu 0;
#X obj 59 129 env~ 1024;
#X obj 161 111 abs~;
#X obj 161 213 snapshot~;
#X obj 161 256 rmstodb;
#X obj 161 21 inlet~;
#X obj 161 288 - 100;
#X obj 59 287 - 100;
#X obj 59 361 outlet;
#X obj 161 361 outlet;
#X text 344 307 Check the help file of env~ and slop~ for more details., f 31;
#X floatatom 239 117 5 0 0 0 - - - 0;
#X obj 161 146 slop~ 0 0 0 0 1e+09;
#X text 359 89 convert to hz;
#X text 282 118 hz;
#X text 284 57 peak decay time in ms;
#X obj 59 171 t f b;
#X text 345 132 The env~ object is dedicated to RMS analysis. Its output is in dB (0-100 range \, pd style) but needs to be converted to dBFS (and we do that by simply subtracting 100)., f 31;
#X text 345 225 The slop~ object is used here for peak detection. We need to convert the output to dB with rmstodb and also subtract by 100 to convert it to dBFS., f 31;
#X obj 239 89 expr 1000 / $f1;
#X obj 240 19 loadbang;
#X msg 240 55 500;
#X connect 0 0 15 0;
#X connect 1 0 11 0;
#X connect 2 0 3 0;
#X connect 3 0 5 0;
#X connect 4 0 0 0;
#X connect 4 0 1 0;
#X connect 5 0 8 0;
#X connect 6 0 7 0;
#X connect 10 0 11 3;
#X connect 11 0 2 0;
#X connect 15 0 6 0;
#X connect 15 1 2 0;
#X connect 18 0 10 0;
#X connect 19 0 20 0;
#X connect 20 0 18 0;
#X restore 132 69 pd vu;
#X obj 132 41 inlet~;
#X connect 1 0 0 0;
#X connect 1 1 0 1;
#X connect 2 0 1 0;
#X coords 0 -1 1 1 60 180 2 100 100;
#X restore 54 126 pd meter;
#X text 13 125 input;
#X text 68 311 output;
#X text 721 138 MULE multi-delay - 2023;
#X text 279 33 "delay feedback" of 0 turns delay off;
#X obj 278 547 unpack s f f;
#X text 276 317 click-and-drag;
#X floatatom 318 575 5 0 0 0 - - - 0;
#X floatatom 359 576 5 0 0 0 - - - 0;
#X obj 278 337 xy 200 200 1;
#X connect 0 0 10 0;
#X connect 5 0 11 0;
#X connect 10 0 13 0;
#X connect 10 0 5 0;
#X connect 11 0 1 0;
#X connect 11 0 1 1;
#X connect 12 0 5 0;
#X connect 12 0 13 0;
#X connect 18 1 20 0;
#X connect 18 2 21 0;
#X connect 22 0 18 0;
