#N canvas 356 143 509 527 12;
#X obj 262 35 bng 19 250 50 0 empty empty empty 0 -10 0 12 #fcfcfc #000000 #000000;
#X msg 262 59 Hello!;
#X obj 262 83 print;
#X obj 51 34 osc~ 220;
#X obj 51 340 *~;
#X obj 52 380 dac~;
#X obj 128 88 vsl 19 162 0 127 0 0 empty empty empty 0 -9 0 12 #fcfcfc #000000 #000000 0 1;
#X obj 128 33 loadbang;
#X msg 128 57 100;
#X obj 128 258 / 127;
#X msg 128 282 \$1 20;
#X obj 128 306 line~;
#X connect 0 0 1 0;
#X connect 1 0 2 0;
#X connect 3 0 4 0;
#X connect 4 0 5 0;
#X connect 4 0 5 1;
#X connect 6 0 9 0;
#X connect 7 0 8 0;
#X connect 8 0 6 0;
#X connect 9 0 10 0;
#X connect 10 0 11 0;
#X connect 11 0 4 1;
